Coordinates
version=1
nRows=5
nColumns=40
inDegrees=yes

Units are S.I. units (second, meters, Newtons, ...)
If the header above contains a line with 'inDegrees', this indicates whether rotational values are in degrees (yes) or radians (no).

endheader
time	pelvis_tilt	pelvis_list	pelvis_rotation	pelvis_tx	pelvis_ty	pelvis_tz	hip_flexion_r	hip_adduction_r	hip_rotation_r	knee_angle_r	knee_angle_r_beta	ankle_angle_r	subtalar_angle_r	mtp_angle_r	hip_flexion_l	hip_adduction_l	hip_rotation_l	knee_angle_l	knee_angle_l_beta	ankle_angle_l	subtalar_angle_l	mtp_angle_l	lumbar_extension	lumbar_bending	lumbar_rotation	arm_flex_r	arm_add_r	arm_rot_r	elbow_flex_r	pro_sup_r	wrist_flex_r	wrist_dev_r	arm_flex_l	arm_add_l	arm_rot_l	elbow_flex_l	pro_sup_l	wrist_flex_l	wrist_dev_l
      3.61500000	    -20.29921523	      0.58602180	      0.28347867	     -0.39185740	      0.81417662	     -0.79644958	     59.08104138	      1.86786227	     -9.35293885	     64.54210518	      1.12647224	     15.93338410	      0.00000000	      0.00000000	     43.10333586	    -12.21180821	      3.77295436	     98.92335589	      1.72653827	    -35.99115354	      0.00000000	      0.00000000	     -8.24424991	    -20.54796572	    -15.99318007	     75.64137411	    -15.30964793	     12.77011689	     60.36811296	     87.52360318	      0.00000000	      0.00000000	     89.96330418	     10.79266126	     30.66403885	     41.79397622	     29.43163615	      0.00000000	      0.00000000
      3.62000000	    -20.26297228	      0.61563304	      0.27103960	     -0.39133322	      0.81583040	     -0.79649621	     58.81379505	      1.86502011	     -9.31513920	     64.18126168	      1.12017433	     15.76948656	      0.00000000	      0.00000000	     43.07325907	    -12.17089788	      3.69150130	     98.92628460	      1.72658938	    -35.97313210	      0.00000000	      0.00000000	     -8.12033330	    -20.54158410	    -15.95592517	     75.64698161	    -15.31793925	     12.79005153	     60.40587885	     87.52550770	      0.00000000	      0.00000000	     89.96331999	     10.76744713	     30.68955204	     41.74757636	     29.37349656	      0.00000000	      0.00000000
      3.62500000	    -20.21391239	      0.63110435	      0.27490273	     -0.39087723	      0.81762781	     -0.79645617	     58.51158744	      1.87892454	     -9.30596393	     63.75427470	      1.11272201	     15.55732223	      0.00000000	      0.00000000	     43.03699361	    -12.18751112	      3.58030266	     98.87043982	      1.72561471	    -35.95104782	      0.00000000	      0.00000000	     -8.05221392	    -20.58980298	    -15.96745815	     75.61836852	    -15.34317509	     12.79646238	     60.42399885	     87.52453704	      0.00000000	      0.00000000	     89.96333389	     10.80716304	     30.73406368	     41.74120354	     29.31564093	      0.00000000	      0.00000000
      3.63000000	    -20.05158460	      0.52472523	      0.23700009	     -0.39025413	      0.81961068	     -0.79632395	     58.04669874	      2.02922315	     -9.32064478	     63.24964391	      1.10391454	     15.27266107	      0.00000000	      0.00000000	     42.87580238	    -12.29079293	      3.59435654	     98.80522094	      1.72447642	    -35.93163451	      0.00000000	      0.00000000	     -8.11186143	    -20.51301423	    -15.99315264	     75.70153105	    -15.24345575	     12.81525335	     60.38572112	     87.54133887	      0.00000000	      0.00000000	     89.96344634	     10.79093711	     30.74983628	     41.77508556	     29.19541896	      0.00000000	      0.00000000
      3.63500000	    -20.01105518	      0.56497596	      0.26805724	     -0.38976557	      0.82114819	     -0.79644481	     57.82580974	      1.96658215	     -9.31625001	     63.00204611	      1.09959314	     15.17834040	      0.00000000	      0.00000000	     42.89437670	    -12.25166652	      3.48515506	     98.83893898	      1.72506491	    -35.91531385	      0.00000000	      0.00000000	     -8.01468579	    -20.53580385	    -16.05212237	     75.64084333	    -15.29618204	     12.79236853	     60.39500453	     87.53728224	      0.00000000	      0.00000000	     89.96345776	     10.74341613	     30.73290727	     41.79444844	     29.16336437	      0.00000000	      0.00000000
